<svg width="162" height="144" viewBox="0 0 162 144" fill="none" xmlns="http://www.w3.org/2000/svg">
<path fill-rule="evenodd" clip-rule="evenodd" d="M49.4778 40.8H0V31.2H49.4778V40.8Z" fill="#4D73FF"/>
<path d="M90.1773 134.4C124.555 134.4 152.424 106.463 152.424 72C152.424 37.5374 124.555 9.6 90.1773 9.6C76.8023 9.6 64.4126 13.8288 54.266 21.0255H39.4538C52.4461 8.03299 70.3759 0 90.1773 0C129.844 0 162 32.2355 162 72C162 111.765 129.844 144 90.1773 144C69.6868 144 51.2003 135.398 38.1153 121.6H52.4023C62.8779 129.63 75.9719 134.4 90.1773 134.4Z" fill="#4D73FF"/>
<path fill-rule="evenodd" clip-rule="evenodd" d="M35.9113 76.8H0.79803V67.2H35.9113V76.8Z" fill="#4D73FF"/>
<path fill-rule="evenodd" clip-rule="evenodd" d="M49.4778 111.2H0V101.6H49.4778V111.2Z" fill="#4D73FF"/>
<path fill-rule="evenodd" clip-rule="evenodd" d="M85.3892 28.8H94.9655V70.7028L114.977 89.2779L108.471 96.3221L85.3892 74.8972V28.8Z" fill="#4D73FF"/>
</svg>
