<svg width="134" height="134" viewBox="0 0 134 134" fill="none" xmlns="http://www.w3.org/2000/svg">
<path fill-rule="evenodd" clip-rule="evenodd" d="M67 125.29C99.1927 125.29 125.29 99.1927 125.29 67C125.29 34.8073 99.1927 8.71 67 8.71C34.8073 8.71 8.71 34.8073 8.71 67C8.71 99.1927 34.8073 125.29 67 125.29ZM67 134C104.003 134 134 104.003 134 67C134 29.9969 104.003 0 67 0C29.9969 0 0 29.9969 0 67C0 104.003 29.9969 134 67 134Z" fill="#4D73FF"/>
<path fill-rule="evenodd" clip-rule="evenodd" d="M100.79 41.3697C102.549 43.0098 102.646 45.7656 101.005 47.5248L59.4654 92.0798C58.6433 92.9615 57.4926 93.463 56.2871 93.465C55.0817 93.467 53.9293 92.9692 53.1044 92.0902L32.6694 70.3152C31.0235 68.5614 31.111 65.8053 32.8648 64.1594C34.6187 62.5135 37.3747 62.601 39.0206 64.3548L56.2696 82.7349L94.6347 41.5852C96.2748 39.826 99.0306 39.7295 100.79 41.3697Z" fill="#4D73FF"/>
</svg>
