<svg width="102" height="102" viewBox="0 0 102 102" fill="none" xmlns="http://www.w3.org/2000/svg">
<path fill-rule="evenodd" clip-rule="evenodd" d="M51 95.37C75.5049 95.37 95.37 75.5049 95.37 51C95.37 26.4951 75.5049 6.63 51 6.63C26.4951 6.63 6.63 26.4951 6.63 51C6.63 75.5049 26.4951 95.37 51 95.37ZM51 102C79.1665 102 102 79.1665 102 51C102 22.8335 79.1665 0 51 0C22.8335 0 0 22.8335 0 51C0 79.1665 22.8335 102 51 102Z" fill="white"/>
<path fill-rule="evenodd" clip-rule="evenodd" d="M76.7206 31.4904C78.0597 32.7388 78.1332 34.8365 76.8847 36.1756L45.2647 70.0906C44.6389 70.7617 43.763 71.1435 42.8454 71.145C41.9278 71.1465 41.0507 70.7676 40.4228 70.0985L24.8678 53.5235C23.6149 52.1885 23.6815 50.0906 25.0165 48.8378C26.3515 47.5849 28.4494 47.6515 29.7023 48.9865L42.8321 62.9773L72.0354 31.6544C73.2838 30.3153 75.3815 30.2419 76.7206 31.4904Z" fill="white"/>
</svg>
