<svg width="109" height="109" viewBox="0 0 109 109" fill="none" xmlns="http://www.w3.org/2000/svg">
<path d="M89.5968 51.8484L89.5968 57.5552L109 57.5552L109 51.8484L89.5968 51.8484Z" fill="white"/>
<path d="M94.9052 91.0196L90.8699 95.055L77.1498 81.3349L81.1851 77.2995L94.9052 91.0196Z" fill="white"/>
<path d="M57.2036 109L51.4968 109L51.4968 89.5968L57.2036 89.5968L57.2036 109Z" fill="white"/>
<path d="M6.18286e-07 51.8484L6.86339e-07 57.5552L19.4032 57.5552L19.4032 51.8484L6.18286e-07 51.8484Z" fill="white"/>
<path d="M17.8305 95.055L13.7952 91.0196L27.5153 77.2995L31.5506 81.3349L17.8305 95.055Z" fill="white"/>
<path d="M31.5506 27.665L27.5153 31.7004L13.7952 17.9803L17.8305 13.9449L31.5506 27.665Z" fill="white"/>
<path d="M57.2036 19.4032L51.4968 19.4032L51.4968 -6.14093e-07L57.2036 -6.82146e-07L57.2036 19.4032Z" fill="white"/>
<path d="M81.1851 31.7004L77.1498 27.665L90.8699 13.9449L94.9052 17.9803L81.1851 31.7004Z" fill="white"/>
</svg>
