<svg width="88" height="113" viewBox="0 0 88 113" fill="none" xmlns="http://www.w3.org/2000/svg">
<path fill-rule="evenodd" clip-rule="evenodd" d="M44 81.925C65.1649 81.925 82.3226 64.8502 82.3226 43.7875C82.3226 22.7248 65.1649 5.65 44 5.65C22.8351 5.65 5.67742 22.7248 5.67742 43.7875C5.67742 64.8502 22.8351 81.925 44 81.925ZM44 87.575C68.3005 87.575 88 67.9706 88 43.7875C88 19.6044 68.3005 0 44 0C19.6995 0 0 19.6044 0 43.7875C0 67.9706 19.6995 87.575 44 87.575Z" fill="white"/>
<path fill-rule="evenodd" clip-rule="evenodd" d="M18.4516 79.3756L24.129 82.747V102.94L43.4978 91.8669L63.871 103.039V82.7886L69.5484 79.3743V112.603L43.5559 98.3495L18.4516 112.701V79.3756Z" fill="white"/>
<path fill-rule="evenodd" clip-rule="evenodd" d="M64.7706 45.6548C64.049 56.4451 55.0255 64.975 44 64.975C32.5029 64.975 23.1828 55.6999 23.1828 44.2583C23.1828 32.8168 32.5029 23.5417 44 23.5417C46.3156 23.5417 48.543 23.918 50.6237 24.6123C50.691 24.6348 50.7583 24.6577 50.8254 24.6809L53.0948 19.4862C53.0596 19.4734 53.0244 19.4607 52.9892 19.4481C50.1825 18.4407 47.1557 17.8917 44 17.8917C29.3674 17.8917 17.5054 29.6964 17.5054 44.2583C17.5054 58.8203 29.3674 70.625 44 70.625C58.6326 70.625 70.4946 58.8203 70.4946 44.2583C70.4946 43.9512 70.4893 43.6451 70.4789 43.3405L64.7706 45.6548Z" fill="white"/>
<path fill-rule="evenodd" clip-rule="evenodd" d="M69.6838 29.756L44.967 54.8659L29.2185 39.1934L33.233 35.1983L44.9254 46.8342L65.628 25.8023L69.6838 29.756Z" fill="white"/>
</svg>
