<svg width="144" height="144" viewBox="0 0 144 144" fill="none" xmlns="http://www.w3.org/2000/svg">
<path d="M118.366 68.497L118.366 76.0363L144 76.0363L144 68.497L118.366 68.497Z" fill="#4D73FF"/>
<path d="M125.379 120.246L120.048 125.577L101.923 107.452L107.254 102.121L125.379 120.246Z" fill="#4D73FF"/>
<path d="M75.5717 144L68.0324 144L68.0324 118.366L75.5717 118.366L75.5717 144Z" fill="#4D73FF"/>
<path d="M8.16818e-07 68.497L9.06723e-07 76.0363L25.6335 76.0363L25.6335 68.497L8.16818e-07 68.497Z" fill="#4D73FF"/>
<path d="M23.5559 125.577L18.2248 120.246L36.3505 102.121L41.6815 107.452L23.5559 125.577Z" fill="#4D73FF"/>
<path d="M41.6815 36.5483L36.3505 41.8794L18.2248 23.7537L23.5559 18.4227L41.6815 36.5483Z" fill="#4D73FF"/>
<path d="M75.5717 25.6335L68.0324 25.6335L68.0324 -8.11279e-07L75.5717 -9.01184e-07L75.5717 25.6335Z" fill="#4D73FF"/>
<path d="M107.254 41.8794L101.923 36.5483L120.048 18.4227L125.379 23.7537L107.254 41.8794Z" fill="#4D73FF"/>
</svg>
